<?xml version="1.0" encoding="UTF-8"?>
<svg id="Camada_4" data-name="Camada 4" xmlns="http://www.w3.org/2000/svg" viewBox="0 0 790.13 1020.79">
  <circle cx="143.24" cy="146.64" r="111.92"/>
  <path d="M758.82,818.17v167.9h-331.75c-9.78,0-19.28-1.25-28.29-3.61-48.09-12.53-83.61-56.29-83.61-108.33,0-20.39,5.45-39.52,14.99-55.95,2.99-5.2,6.41-10.07,10.17-14.7l97.2-97.2h-210.36c-15.42,0-27.95,12.53-27.95,27.95v251.85H31.32v-335.8c0-9.64,1.2-19.04,3.52-27.95,12.43-48.29,56.24-83.95,108.38-83.95h294.16l-105.15-105.15-49.2,49.2H31.32v-167.9h182.21l118.7-118.7,350.3,350.26.92.96c18.02,19.9,29.06,46.26,29.06,75.27,0,30.89-12.53,58.89-32.77,79.13-1.64,1.64-116.72,116.72-116.72,116.72h195.8Z"/>
</svg>