<?xml version="1.0" encoding="UTF-8"?>
<svg id="Camada_4" data-name="Camada 4" xmlns="http://www.w3.org/2000/svg" viewBox="0 0 800.68 1025.21">
  <defs>
    <style>
      .cls-1 {
        fill: #fff;
      }
    </style>
  </defs>
  <circle class="cls-1" cx="145.14" cy="143.98" r="113.42"/>
  <path class="cls-1" d="M768.97,824.51v170.15h-336.2c-9.91,0-19.53-1.27-28.67-3.66-48.74-12.7-84.73-57.04-84.73-109.79,0-20.66,5.52-40.05,15.19-56.7,3.03-5.27,6.5-10.21,10.31-14.9l98.5-98.51h-213.18c-15.63,0-28.33,12.7-28.33,28.33v255.22H31.72v-340.3c0-9.77,1.22-19.29,3.57-28.33,12.6-48.94,56.99-85.07,109.84-85.07h298.1l-106.56-106.56-49.86,49.86H31.72v-170.15h184.65l120.29-120.29,355,354.95.93.98c18.27,20.17,29.45,46.88,29.45,76.28,0,31.3-12.7,59.68-33.21,80.19-1.66,1.66-118.28,118.28-118.28,118.28h198.43Z"/>
</svg>