<?xml version="1.0" encoding="UTF-8"?>
<svg id="Layer_2" data-name="Layer 2" xmlns="http://www.w3.org/2000/svg" viewBox="0 0 2313.62 361.61">
  <g id="Camada_4" data-name="Camada 4">
    <g>
      <path d="M1654.5,271.12v90.03h-240.18V.85h44.94c24.94,0,45.16,20.22,45.16,45.16v225.12h150.09-.01Z"/>
      <path d="M706.37,100.39v35.98h120.12v90.09h-111.09c-4.99,0-9.03,4.04-9.03,9.03v35.98h150.15v90.09h-240.24V46.41c0-24.94,20.22-45.16,45.16-45.16h195.09v90.09h-141.12c-4.99,0-9.03,4.04-9.03,9.03v.02Z"/>
      <path d="M423.95,100.39v35.98h120.06v90.09h-111.03c-4.99,0-9.03,4.04-9.03,9.03v35.98h150.09v90.09h-240.18V46.41c0-24.94,20.22-45.16,45.16-45.16h195.03v90.09h-141.06c-4.99,0-9.03,4.04-9.03,9.03v.02Z"/>
      <path d="M1264.77,99.97v35.98h90.09v90.09h-81.06c-4.99,0-9.03,4.04-9.03,9.03v126.07h-90.09V45.99c0-24.94,20.22-45.16,45.16-45.16h165.06v90.09h-111.09c-4.99,0-9.03,4.04-9.03,9.03v.02Z"/>
      <path d="M2313.62.85l-4.86,30.03-53.09,330.27h-86.93l-28.97-112.57-28.97,112.57h-86.87l-53.09-330.27-4.86-30.03h86.93l32.35,201.31,21.16-54.85c2.65-6.86,9.05-11.36,16.18-11.36h34.34c7.13,0,13.54,4.5,16.18,11.36l21.16,54.9L2226.69.84h86.93Z"/>
      <path d="M1960.77,120.06C1946.89,51.59,1886.28,0,1813.63,0s-133.26,51.59-147.14,120.06c-1.96,9.7-3.01,19.77-3.01,30.03v60.06c0,12.96,1.66,25.55,4.73,37.52,16.64,64.73,75.48,112.63,145.42,112.63s128.78-47.9,145.42-112.63c3.07-11.98,4.73-24.56,4.73-37.52v-60.06c0-10.26-1.05-20.33-3.01-30.03h0ZM1873.68,210.15c0,14.19-4.97,27.27-13.14,37.52-11.05,13.76-27.94,22.54-46.92,22.54s-35.86-8.78-46.92-22.54c-8.17-10.26-13.14-23.34-13.14-37.52v-60.06c0-10.93,2.95-21.19,8.05-30.03,10.38-17.93,29.78-29.97,52.01-29.97s41.64,12.04,52.01,29.97c5.1,8.84,8.05,19.1,8.05,30.03v60.06Z"/>
      <path d="M137.91,1.27H0v90.09h137.9c39.93,0,72.31,32.37,72.31,72.31v35.56c0,39.9-32.35,72.25-72.25,72.25h-47.87v-135.11H0v225.2h137.9c89.69,0,162.4-72.71,162.4-162.4v-35.5C300.3,73.98,227.59,1.27,137.9,1.27h.01Z"/>
      <path d="M1112.53,27.65c-16.27-16.34-38.81-26.41-63.68-26.41h-150.09v90.12l127.61-.03c13.16,0,23.69,11.33,22.36,24.83-1.15,11.74-11.88,20.25-23.67,20.25l-126.31-.03v225.23h90.09v-135.17h60c24.87,0,47.41-10.07,63.68-26.35,16.34-16.27,26.41-38.81,26.41-63.68v-45.08c0-24.87-10.07-47.41-26.41-63.68h.01Z"/>
    </g>
  </g>
</svg>